<mxfile host="65bd71144e">
    <diagram id="9cSuTDKJCCKyQ7fdRLsG" name="Page-1">
        <mxGraphModel dx="471" dy="1006" grid="0" gridSize="10" guides="1" tooltips="1" connect="1" arrows="1" fold="1" page="1" pageScale="1" pageWidth="1200" pageHeight="800" background="#ffffff" math="0" shadow="0">
            <root>
                <mxCell id="0"/>
                <mxCell id="1" parent="0"/>
                <mxCell id="2" value="&lt;b style=&quot;&quot;&gt;&lt;font style=&quot;font-size: 12px;&quot;&gt;fct_sales&lt;/font&gt;&lt;/b&gt;&lt;br style=&quot;font-size: 11px;&quot;&gt;&lt;br style=&quot;font-size: 11px;&quot;&gt;&lt;b style=&quot;font-size: 11px;&quot;&gt;Measures:&lt;/b&gt;&lt;br style=&quot;font-size: 11px;&quot;&gt;• Order Count (distinct salesorderid)&lt;br style=&quot;font-size: 11px;&quot;&gt;• Quantity Purchased (sum orderqty)&lt;br style=&quot;font-size: 11px;&quot;&gt;• Total Amount (sum unitprice * orderqty)&lt;br style=&quot;font-size: 11px;&quot;&gt;• Net Amount (sum unitprice * orderqty * (1-discount))&lt;br style=&quot;font-size: 11px;&quot;&gt;&lt;br style=&quot;font-size: 11px;&quot;&gt;&lt;b style=&quot;font-size: 11px;&quot;&gt;Foreign Keys:&lt;/b&gt;&lt;br style=&quot;font-size: 11px;&quot;&gt;• customer_key&lt;br style=&quot;font-size: 11px;&quot;&gt;• product_key&lt;br style=&quot;font-size: 11px;&quot;&gt;• date_key&lt;br style=&quot;font-size: 11px;&quot;&gt;• salesperson_key&lt;br style=&quot;font-size: 11px;&quot;&gt;• location_key&lt;br style=&quot;font-size: 11px;&quot;&gt;• sales_reason_key" style="rounded=1;whiteSpace=wrap;html=1;fillColor=#FFCC99;strokeColor=#9b7a59;fontSize=11;align=left;verticalAlign=top;glass=0;shadow=0;spacingLeft=22;spacingTop=10;fontColor=#000000;labelBorderColor=none;" parent="1" vertex="1">
                    <mxGeometry x="410" y="230" width="210" height="260" as="geometry"/>
                </mxCell>
                <mxCell id="3" value="&lt;b&gt;dim_customer&lt;/b&gt;&lt;br&gt;&lt;br&gt;&lt;b&gt;Source:&lt;/b&gt; person table&lt;br&gt;&lt;br&gt;&lt;b&gt;Attributes:&lt;/b&gt;&lt;br&gt;• customer_key (PK)&lt;br&gt;• customer_name&lt;br&gt;• customer_type&lt;br&gt;• email&lt;br&gt;• phone" style="rounded=1;whiteSpace=wrap;html=1;fillColor=#d5e8d4;strokeColor=#82b366;fontSize=11;align=left;verticalAlign=top;" parent="1" vertex="1">
                    <mxGeometry x="50" y="100" width="150" height="140" as="geometry"/>
                </mxCell>
                <mxCell id="4" value="&lt;b&gt;dim_product&lt;/b&gt;&lt;br&gt;&lt;br&gt;&lt;b&gt;Source:&lt;/b&gt; product table&lt;br&gt;&lt;br&gt;&lt;b&gt;Attributes:&lt;/b&gt;&lt;br&gt;• product_key (PK)&lt;br&gt;• product_name&lt;br&gt;• product_number&lt;br&gt;• category&lt;br&gt;• subcategory&lt;br&gt;• color&lt;br&gt;• size" style="rounded=1;whiteSpace=wrap;html=1;fillColor=#d5e8d4;strokeColor=#82b366;fontSize=11;align=left;verticalAlign=top;" parent="1" vertex="1">
                    <mxGeometry x="50" y="300" width="150" height="160" as="geometry"/>
                </mxCell>
                <mxCell id="5" value="&lt;b&gt;dim_date&lt;/b&gt;&lt;br&gt;&lt;br&gt;&lt;b&gt;Source:&lt;/b&gt; salesorderheader.orderdate&lt;br&gt;&lt;br&gt;&lt;b&gt;Attributes:&lt;/b&gt;&lt;br&gt;• date_key (PK)&lt;br&gt;• full_date&lt;br&gt;• day_of_week&lt;br&gt;• month&lt;br&gt;• quarter&lt;br&gt;• year&lt;br&gt;• is_weekend&lt;br&gt;• is_holiday" style="rounded=1;whiteSpace=wrap;html=1;fillColor=#d5e8d4;strokeColor=#82b366;fontSize=11;align=left;verticalAlign=top;" parent="1" vertex="1">
                    <mxGeometry x="50" y="500" width="150" height="160" as="geometry"/>
                </mxCell>
                <mxCell id="6" value="&lt;b&gt;&lt;font style=&quot;font-size: 12px;&quot;&gt;dim_salesperson&lt;/font&gt;&lt;/b&gt;&lt;br&gt;&lt;br&gt;&lt;b&gt;Source:&lt;/b&gt; person table&lt;br&gt;&lt;br&gt;&lt;b&gt;Attributes:&lt;/b&gt;&lt;br&gt;• salesperson_key (PK)&lt;br&gt;• salesperson_name&lt;br&gt;• territory&lt;br&gt;• hire_date&lt;br&gt;• manager" style="rounded=1;whiteSpace=wrap;html=1;fillColor=#d5e8d4;strokeColor=#82b366;fontSize=11;align=left;verticalAlign=top;spacingLeft=22;spacingTop=10;fontColor=#000000;" parent="1" vertex="1">
                    <mxGeometry x="800" y="100" width="150" height="162" as="geometry"/>
                </mxCell>
                <mxCell id="7" value="&lt;b&gt;dim_location&lt;/b&gt;&lt;br&gt;&lt;br&gt;&lt;b&gt;Source:&lt;/b&gt; address, stateprovince, countryregion&lt;br&gt;&lt;br&gt;&lt;b&gt;Attributes:&lt;/b&gt;&lt;br&gt;• location_key (PK)&lt;br&gt;• city&lt;br&gt;• state_province&lt;br&gt;• country_region&lt;br&gt;• postal_code&lt;br&gt;• address_line1&lt;br&gt;• address_line2" style="rounded=1;whiteSpace=wrap;html=1;fillColor=#d5e8d4;strokeColor=#82b366;fontSize=11;align=left;verticalAlign=top;" parent="1" vertex="1">
                    <mxGeometry x="800" y="300" width="150" height="160" as="geometry"/>
                </mxCell>
                <mxCell id="8" value="&lt;b&gt;dim_sales_reason&lt;/b&gt;&lt;br&gt;&lt;br&gt;&lt;b&gt;Source:&lt;/b&gt; salesreason table&lt;br&gt;&lt;br&gt;&lt;b&gt;Attributes:&lt;/b&gt;&lt;br&gt;• sales_reason_key (PK)&lt;br&gt;• reason_name&lt;br&gt;• reason_type&lt;br&gt;• description" style="rounded=1;whiteSpace=wrap;html=1;fillColor=#d5e8d4;strokeColor=#82b366;fontSize=11;align=left;verticalAlign=top;" parent="1" vertex="1">
                    <mxGeometry x="800" y="500" width="150" height="140" as="geometry"/>
                </mxCell>
                <mxCell id="9" value="customer_key" style="endArrow=classic;html=1;rounded=0;exitX=1;exitY=0.5;exitDx=0;exitDy=0;entryX=0;entryY=0.5;entryDx=0;entryDy=0;fontSize=10;fontStyle=1;fillColor=#ffffff;strokeColor=#000000;" parent="1" source="3" target="2" edge="1">
                    <mxGeometry width="50" height="50" relative="1" as="geometry">
                        <mxPoint x="240" y="170" as="sourcePoint"/>
                        <mxPoint x="290" y="120" as="targetPoint"/>
                    </mxGeometry>
                </mxCell>
                <mxCell id="10" value="product_key" style="endArrow=classic;html=1;rounded=0;exitX=1;exitY=0.5;exitDx=0;exitDy=0;entryX=0;entryY=0.5;entryDx=0;entryDy=0;fontSize=10;fontStyle=1;fillColor=#ffffff;strokeColor=#000000;" parent="1" source="4" target="2" edge="1">
                    <mxGeometry width="50" height="50" relative="1" as="geometry">
                        <mxPoint x="240" y="380" as="sourcePoint"/>
                        <mxPoint x="290" y="330" as="targetPoint"/>
                    </mxGeometry>
                </mxCell>
                <mxCell id="11" value="date_key" style="endArrow=classic;html=1;rounded=0;exitX=1;exitY=0.5;exitDx=0;exitDy=0;entryX=0;entryY=0.5;entryDx=0;entryDy=0;fontSize=10;fontStyle=1;fillColor=#ffffff;strokeColor=#000000;" parent="1" source="5" target="2" edge="1">
                    <mxGeometry width="50" height="50" relative="1" as="geometry">
                        <mxPoint x="240" y="580" as="sourcePoint"/>
                        <mxPoint x="290" y="530" as="targetPoint"/>
                    </mxGeometry>
                </mxCell>
                <mxCell id="12" value="salesperson_key" style="endArrow=classic;html=1;rounded=0;exitX=0;exitY=0.5;exitDx=0;exitDy=0;entryX=1;entryY=0.5;entryDx=0;entryDy=0;fontSize=10;fontStyle=1;fillColor=#ffffff;strokeColor=#000000;" parent="1" source="6" target="2" edge="1">
                    <mxGeometry width="50" height="50" relative="1" as="geometry">
                        <mxPoint x="790" y="170" as="sourcePoint"/>
                        <mxPoint x="740" y="120" as="targetPoint"/>
                    </mxGeometry>
                </mxCell>
                <mxCell id="13" value="location_key" style="endArrow=classic;html=1;rounded=0;exitX=0;exitY=0.5;exitDx=0;exitDy=0;entryX=1;entryY=0.5;entryDx=0;entryDy=0;fontSize=10;fontStyle=1;fillColor=#ffffff;strokeColor=#000000;" parent="1" source="7" target="2" edge="1">
                    <mxGeometry width="50" height="50" relative="1" as="geometry">
                        <mxPoint x="790" y="380" as="sourcePoint"/>
                        <mxPoint x="740" y="330" as="targetPoint"/>
                    </mxGeometry>
                </mxCell>
                <mxCell id="14" value="sales_reason_key" style="endArrow=classic;html=1;rounded=0;exitX=0;exitY=0.5;exitDx=0;exitDy=0;entryX=1;entryY=0.5;entryDx=0;entryDy=0;fontSize=10;fontStyle=1;fillColor=#ffffff;strokeColor=#000000;" parent="1" source="8" target="2" edge="1">
                    <mxGeometry width="50" height="50" relative="1" as="geometry">
                        <mxPoint x="790" y="570" as="sourcePoint"/>
                        <mxPoint x="740" y="520" as="targetPoint"/>
                    </mxGeometry>
                </mxCell>
                <mxCell id="15" value="&lt;b&gt;Adventure Works - Conceptual Data Warehouse Design&lt;/b&gt;&lt;br&gt;&lt;br&gt;Star Schema: Sales Fact Table with 6 Dimension Tables&lt;br&gt;Supporting Business Questions: Sales Performance Analysis by Product, Customer, Location, Time, Salesperson, and Sales Reason" style="text;html=1;strokeColor=none;fillColor=none;align=center;verticalAlign=middle;whiteSpace=wrap;rounded=0;fontSize=14;fontStyle=1" parent="1" vertex="1">
                    <mxGeometry x="200" y="20" width="600" height="60" as="geometry"/>
                </mxCell>
                <mxCell id="16" value="&lt;b&gt;Source Tables Mapping:&lt;/b&gt;&lt;br&gt;• sales.salesorderheader → Date, Customer, Salesperson, Location&lt;br&gt;• sales.salesorderdetail → Product, Quantity, Unit Price, Discount&lt;br&gt;• sales.salesreason → Sales Reason&lt;br&gt;• person.person → Customer, Salesperson&lt;br&gt;• production.product → Product&lt;br&gt;• person.address → Location&lt;br&gt;• person.stateprovince → Location&lt;br&gt;• person.countryregion → Location" style="text;html=1;strokeColor=none;fillColor=#fff2cc;align=left;verticalAlign=top;whiteSpace=wrap;rounded=1;fontSize=10;fontStyle=2" parent="1" vertex="1">
                    <mxGeometry x="200" y="650" width="600" height="80" as="geometry"/>
                </mxCell>
            </root>
        </mxGraphModel>
    </diagram>
</mxfile>